<svg width="24" height="24" viewBox="0 0 24 24" fill="none" xmlns="http://www.w3.org/2000/svg">
<path d="M17.3837 21.01C16.8937 21.5 16.1037 21.5 15.6137 21.01L7.30368 12.7C7.21098 12.6075 7.13743 12.4976 7.08725 12.3767C7.03707 12.2557 7.01124 12.126 7.01124 11.995C7.01124 11.8641 7.03707 11.7344 7.08725 11.6134C7.13743 11.4925 7.21098 11.3826 7.30368 11.29L15.6137 2.98005C16.1037 2.49005 16.8937 2.49005 17.3837 2.98005C17.8737 3.47005 17.8737 4.26005 17.3837 4.75005L10.1437 12L17.3937 19.25C17.8737 19.73 17.8737 20.5301 17.3837 21.01Z" fill="#D1D6DB"/>
</svg>
