<svg width="81" height="28" viewBox="0 0 81 28" fill="none" xmlns="http://www.w3.org/2000/svg">
<mask id="path-1-inside-1_1014_16789" fill="white">
<path d="M13 0C5.8203 1.03081e-06 0 5.8203 0 13C0 16.2965 1.22971 19.3041 3.25195 21.5957L0.491211 28L6.77344 24.4131C8.62267 25.4241 10.7439 26 13 26H68C75.1797 26 81 20.1797 81 13C81 5.8203 75.1797 0 68 0H13Z"/>
</mask>
<path d="M13 0C5.8203 1.03081e-06 0 5.8203 0 13C0 16.2965 1.22971 19.3041 3.25195 21.5957L0.491211 28L6.77344 24.4131C8.62267 25.4241 10.7439 26 13 26H68C75.1797 26 81 20.1797 81 13C81 5.8203 75.1797 0 68 0H13Z" fill="#E1F3F4"/>
<path d="M13 0V-1V-1V0ZM3.25195 21.5957L4.00175 20.934L4.42123 21.4094L4.17027 21.9916L3.25195 21.5957ZM0.491211 28L0.987045 28.8684L-1.61173 30.3522L-0.427101 27.6041L0.491211 28ZM6.77344 24.4131L6.2776 23.5447L6.76286 23.2676L7.25314 23.5357L6.77344 24.4131ZM68 26V27V27V26ZM13 0V1C6.37258 1 1 6.37258 1 13H0H-1C-1 5.26801 5.26801 -0.999999 13 -1V0ZM0 13H1C1 16.0429 2.13402 18.8175 4.00175 20.934L3.25195 21.5957L2.50216 22.2574C0.325417 19.7907 -1 16.5502 -1 13H0ZM3.25195 21.5957L4.17027 21.9916L1.40952 28.3959L0.491211 28L-0.427101 27.6041L2.33364 21.1998L3.25195 21.5957ZM0.491211 28L-0.00462341 27.1316L6.2776 23.5447L6.77344 24.4131L7.26927 25.2815L0.987045 28.8684L0.491211 28ZM6.77344 24.4131L7.25314 23.5357C8.95935 24.4685 10.9161 25 13 25V26V27C10.5717 27 8.28598 26.3797 6.29373 25.2905L6.77344 24.4131ZM13 26V25H68V26V27H13V26ZM68 26V25C74.6274 25 80 19.6274 80 13H81H82C82 20.732 75.732 27 68 27V26ZM81 13H80C80 6.37258 74.6274 1 68 1V0V-1C75.732 -1 82 5.26801 82 13H81ZM68 0V1H13V0V-1H68V0Z" fill="#95DCDA" mask="url(#path-1-inside-1_1014_16789)"/>
</svg>
