<svg width="23" height="24" viewBox="0 0 23 24" fill="none" xmlns="http://www.w3.org/2000/svg">
<path d="M1.74023 10.7249V14.0249C1.74023 18.173 1.74023 20.2476 3.02943 21.5357C4.31863 22.8238 6.39213 22.8249 10.5402 22.8249H11.6402C15.7883 22.8249 17.8629 22.8249 19.151 21.5357C20.4391 20.2465 20.4402 18.173 20.4402 14.0249V10.7249" stroke="#65DBBE" stroke-width="1.65"/>
<path d="M8.34015 0.824951H13.8401L14.5573 7.99365C14.6046 8.47739 14.5501 8.96567 14.3974 9.42709C14.2446 9.88851 13.997 10.3129 13.6705 10.6729C13.3439 11.0329 12.9456 11.3206 12.5012 11.5174C12.0569 11.7143 11.5762 11.816 11.0901 11.816C10.6041 11.816 10.1234 11.7143 9.67905 11.5174C9.23466 11.3206 8.83639 11.0329 8.50984 10.6729C8.18329 10.3129 7.93568 9.88851 7.78294 9.42709C7.6302 8.96567 7.5757 8.47739 7.62295 7.99365L8.34015 0.824951Z" stroke="#65DBBE" stroke-width="1.65"/>
<path d="M1.55321 4.51105C1.74901 3.53205 1.84691 3.04255 2.04601 2.64545C2.25347 2.23189 2.54557 1.86658 2.90335 1.57323C3.26114 1.27987 3.67661 1.06503 4.12281 0.942651C4.55181 0.824951 5.05121 0.824951 6.05001 0.824951H8.34021L7.54271 8.79445C7.50062 9.25054 7.36589 9.69325 7.14677 10.0955C6.92765 10.4977 6.62874 10.8509 6.26835 11.1336C5.90796 11.4163 5.49367 11.6225 5.05083 11.7395C4.608 11.8565 4.14595 11.8819 3.69296 11.8141C3.23997 11.7464 2.80557 11.5868 2.41637 11.3454C2.02716 11.1039 1.69134 10.7855 1.42945 10.4097C1.16756 10.034 0.985115 9.60871 0.893289 9.15998C0.801463 8.71125 0.802185 8.24849 0.895411 7.80005L1.55321 4.51105ZM20.6272 4.51105C20.4314 3.53205 20.3335 3.04255 20.1344 2.64545C19.927 2.23189 19.6349 1.86658 19.2771 1.57323C18.9193 1.27987 18.5038 1.06503 18.0576 0.942651C17.6286 0.824951 17.1292 0.824951 16.1304 0.824951H13.8402L14.6377 8.79445C14.6798 9.25054 14.8145 9.69325 15.0337 10.0955C15.2528 10.4977 15.5517 10.8509 15.9121 11.1336C16.2725 11.4163 16.6868 11.6225 17.1296 11.7395C17.5724 11.8565 18.0345 11.8819 18.4875 11.8141C18.9405 11.7464 19.3748 11.5868 19.7641 11.3454C20.1533 11.1039 20.4891 10.7855 20.751 10.4097C21.0129 10.034 21.1953 9.60871 21.2871 9.15998C21.379 8.71125 21.3782 8.24849 21.285 7.80005L20.6272 4.51105Z" stroke="#65DBBE" stroke-width="1.65"/>
<path d="M8.34009 22.2749V18.9749C8.34009 17.9464 8.34009 17.4327 8.56119 17.0499C8.706 16.799 8.91428 16.5908 9.16509 16.446C9.54789 16.2249 10.0616 16.2249 11.0901 16.2249C12.1186 16.2249 12.6323 16.2249 13.0151 16.446C13.2659 16.5908 13.4742 16.799 13.619 17.0499C13.8401 17.4327 13.8401 17.9464 13.8401 18.9749V22.2749" stroke="#65DBBE" stroke-width="1.65" stroke-linecap="round"/>
</svg>
