<svg width="23" height="24" viewBox="0 0 23 24" fill="none" xmlns="http://www.w3.org/2000/svg">
<path d="M1.74023 10.7251V14.0251C1.74023 18.1732 1.74023 20.2478 3.02943 21.5359C4.31863 22.824 6.39213 22.8251 10.5402 22.8251H11.6402C15.7883 22.8251 17.8629 22.8251 19.151 21.5359C20.4391 20.2467 20.4402 18.1732 20.4402 14.0251V10.7251" stroke="#A8A8A8" stroke-width="1.65"/>
<path d="M8.34015 0.82505H13.8401L14.5573 7.99375C14.6046 8.47749 14.5501 8.96577 14.3974 9.42719C14.2446 9.88861 13.997 10.313 13.6705 10.673C13.3439 11.033 12.9456 11.3207 12.5012 11.5175C12.0569 11.7144 11.5762 11.8161 11.0901 11.8161C10.6041 11.8161 10.1234 11.7144 9.67905 11.5175C9.23466 11.3207 8.83639 11.033 8.50984 10.673C8.18329 10.313 7.93568 9.88861 7.78294 9.42719C7.6302 8.96577 7.5757 8.47749 7.62295 7.99375L8.34015 0.82505Z" stroke="#A8A8A8" stroke-width="1.65"/>
<path d="M1.55321 4.51115C1.74901 3.53215 1.84691 3.04265 2.04601 2.64555C2.25347 2.23199 2.54557 1.86668 2.90335 1.57333C3.26114 1.27997 3.67661 1.06513 4.12281 0.94275C4.55181 0.82505 5.05121 0.82505 6.05001 0.82505H8.34021L7.54271 8.79455C7.50062 9.25064 7.36589 9.69335 7.14677 10.0956C6.92765 10.4978 6.62874 10.851 6.26835 11.1337C5.90796 11.4164 5.49367 11.6226 5.05083 11.7396C4.608 11.8566 4.14595 11.882 3.69296 11.8142C3.23997 11.7464 2.80557 11.5869 2.41637 11.3455C2.02716 11.104 1.69134 10.7856 1.42945 10.4098C1.16756 10.0341 0.985115 9.60881 0.893289 9.16008C0.801463 8.71134 0.802185 8.24859 0.895411 7.80015L1.55321 4.51115ZM20.6272 4.51115C20.4314 3.53215 20.3335 3.04265 20.1344 2.64555C19.927 2.23199 19.6349 1.86668 19.2771 1.57333C18.9193 1.27997 18.5038 1.06513 18.0576 0.94275C17.6286 0.82505 17.1292 0.82505 16.1304 0.82505H13.8402L14.6377 8.79455C14.6798 9.25064 14.8145 9.69335 15.0337 10.0956C15.2528 10.4978 15.5517 10.851 15.9121 11.1337C16.2725 11.4164 16.6868 11.6226 17.1296 11.7396C17.5724 11.8566 18.0345 11.882 18.4875 11.8142C18.9405 11.7464 19.3748 11.5869 19.7641 11.3455C20.1533 11.104 20.4891 10.7856 20.751 10.4098C21.0129 10.0341 21.1953 9.60881 21.2871 9.16008C21.379 8.71134 21.3782 8.24859 21.285 7.80015L20.6272 4.51115Z" stroke="#A8A8A8" stroke-width="1.65"/>
<path d="M8.34009 22.2751V18.9751C8.34009 17.9466 8.34009 17.4329 8.56119 17.0501C8.706 16.7992 8.91428 16.591 9.16509 16.4462C9.54789 16.2251 10.0616 16.2251 11.0901 16.2251C12.1186 16.2251 12.6323 16.2251 13.0151 16.4462C13.2659 16.591 13.4742 16.7992 13.619 17.0501C13.8401 17.4329 13.8401 17.9466 13.8401 18.9751V22.2751" stroke="#A8A8A8" stroke-width="1.65" stroke-linecap="round"/>
</svg>
